<?xml version="1.0" encoding="UTF-8" standalone="no"?>
<!-- Created with Inkscape (http://www.inkscape.org/) -->

<svg
   version="1.1"
   id="svg42430"
   width="1600"
   height="1600"
   viewBox="0 0 1600 1600"
   sodipodi:docname="children-read-book-vector-pdv.svg"
   inkscape:version="1.2 (dc2aedaf03, 2022-05-15)"
   xmlns:inkscape="http://www.inkscape.org/namespaces/inkscape"
   xmlns:sodipodi="http://sodipodi.sourceforge.net/DTD/sodipodi-0.dtd"
   xmlns="http://www.w3.org/2000/svg"
   xmlns:svg="http://www.w3.org/2000/svg">
  <defs
     id="defs42434">
    <clipPath
       clipPathUnits="userSpaceOnUse"
       id="clipPath42446">
      <path
         d="M 0,1200 H 1200 V 0 H 0 Z"
         id="path42444" />
    </clipPath>
  </defs>
  <sodipodi:namedview
     id="namedview42432"
     pagecolor="#ffffff"
     bordercolor="#000000"
     borderopacity="0.25"
     inkscape:showpageshadow="2"
     inkscape:pageopacity="0.0"
     inkscape:pagecheckerboard="0"
     inkscape:deskcolor="#d1d1d1"
     showgrid="false"
     inkscape:zoom="0.523125"
     inkscape:cx="800"
     inkscape:cy="800.95579"
     inkscape:window-width="1920"
     inkscape:window-height="1017"
     inkscape:window-x="-8"
     inkscape:window-y="-8"
     inkscape:window-maximized="1"
     inkscape:current-layer="g42438">
    <inkscape:page
       x="0"
       y="0"
       id="page42436"
       width="1600"
       height="1600" />
  </sodipodi:namedview>
  <g
     id="g42438"
     inkscape:groupmode="layer"
     inkscape:label="Page 1"
     transform="matrix(1.3333333,0,0,-1.3333333,0,1600)">
    <g
       id="g42440">
      <g
         id="g42442"
         clip-path="url(#clipPath42446)">
        <g
           id="g42448"
           transform="translate(857.0752,982.915)">
          <path
             d="m 0,0 c 136.384,185.109 239.459,-16.817 175.333,-134.808 -6.885,23.54 -13.77,39.748 -34.641,45.964 0,-42.854 -3.332,-65.058 -21.983,-81.935 0.032,55.47 -10.982,61.917 -30.144,99.415 C 73.72,-42.308 60.425,-39.439 36.891,-47.188 23.079,-36.671 13.811,-10.517 0,0"
             style="fill:#1a1a1a;fill-opacity:1;fill-rule:evenodd;stroke:none"
             id="path42450" />
        </g>
        <g
           id="g42452"
           transform="translate(862.8711,919.3867)">
          <path
             d="M 0,0 C 19.63,0 35.638,14.363 35.638,31.976 35.638,49.586 19.63,63.951 0,63.951 -19.631,63.951 -35.639,49.586 -35.639,31.976 -35.639,14.363 -19.631,0 0,0"
             style="fill:#cc3300;fill-opacity:1;fill-rule:evenodd;stroke:none"
             id="path42454" />
        </g>
        <g
           id="g42456"
           transform="translate(783.2773,616.7627)">
          <path
             d="m 0,0 c 89.325,0 162.182,72.854 162.182,162.18 0,89.326 -72.857,162.184 -162.182,162.184 -89.326,0 -162.183,-72.858 -162.183,-162.184 C -162.183,72.854 -89.326,0 0,0"
             style="fill:#ffcc99;fill-opacity:1;fill-rule:evenodd;stroke:none"
             id="path42458" />
        </g>
        <g
           id="g42460"
           transform="translate(621.8652,794.8359)">
          <path
             d="m 0,0 c 10.348,31.293 22.196,58.73 40.406,69.82 64.992,-57.211 136.12,-63.813 210.079,-47.06 20.335,-22.746 22.544,-59.302 19.327,-99.996 30.272,33.591 33.503,12.221 29.001,-24.856 C 461.462,207.266 -19.934,271.554 0,0"
             style="fill:#1a1a1a;fill-opacity:1;fill-rule:evenodd;stroke:none"
             id="path42462" />
        </g>
        <g
           id="g42464"
           transform="translate(678.4453,678.3164)">
          <path
             d="M 0,0 C 23.523,-37.132 71.987,-49.002 111.76,-22.688 71.845,-24.368 23.316,-14.494 0,0"
             style="fill:#ffffff;fill-opacity:1;fill-rule:evenodd;stroke:none"
             id="path42466" />
        </g>
        <g
           id="g42468"
           transform="translate(785.1641,721.3848)">
          <path
             d="m 0,0 c 10.183,0 18.487,9.909 18.487,22.057 0,12.15 -8.304,22.059 -18.487,22.059 -10.184,0 -18.488,-9.909 -18.488,-22.059 C -18.488,9.909 -10.184,0 0,0"
             style="fill:#333333;fill-opacity:1;fill-rule:evenodd;stroke:none"
             id="path42470" />
        </g>
        <g
           id="g42472"
           transform="translate(677.6025,751.8437)">
          <path
             d="m 0,0 c 7.058,0 12.816,9.909 12.816,22.059 0,12.15 -5.758,22.059 -12.816,22.059 -7.058,0 -12.816,-9.909 -12.816,-22.059 C -12.816,9.909 -7.058,0 0,0"
             style="fill:#333333;fill-opacity:1;fill-rule:evenodd;stroke:none"
             id="path42474" />
        </g>
        <g
           id="g42476"
           transform="translate(785.6006,686.9004)">
          <path
             d="m 0,0 c 13.209,0 23.982,6.209 23.982,13.822 0,7.613 -10.773,13.824 -23.982,13.824 -13.207,0 -23.981,-6.211 -23.981,-13.824 C -23.981,6.209 -13.207,0 0,0"
             style="fill:#ffcccc;fill-opacity:1;fill-rule:evenodd;stroke:none"
             id="path42478" />
        </g>
        <g
           id="g42480"
           transform="translate(664.0371,747.123)">
          <path
             d="m 0,0 c 9.792,-3.736 16.385,-12.703 14.726,-20.025 -1.662,-7.325 -10.944,-10.231 -20.738,-6.494 -9.79,3.736 -16.383,12.704 -14.724,20.027 C -19.074,0.832 -9.793,3.739 0,0"
             style="fill:#ffcccc;fill-opacity:1;fill-rule:evenodd;stroke:none"
             id="path42482" />
        </g>
        <g
           id="g42484"
           transform="translate(366.8223,622.4111)">
          <path
             d="M 0,0 C 94.667,0 171.878,77.209 171.878,171.873 171.878,266.54 94.667,343.751 0,343.751 -94.662,343.751 -171.873,266.54 -171.873,171.873 -171.873,77.209 -94.662,0 0,0"
             style="fill:#ffcc99;fill-opacity:1;fill-rule:evenodd;stroke:none"
             id="path42486" />
        </g>
        <g
           id="g42488"
           transform="translate(537.8818,811.127)">
          <path
             d="M 0,0 C -10.967,33.163 -23.523,62.238 -42.82,73.993 -111.7,13.363 -187.077,6.365 -265.455,24.123 -287.007,0.016 -289.35,-38.725 -285.94,-81.851 c -32.081,35.598 -35.505,12.953 -30.735,-26.342 C -419.991,57.69 -278.543,248.157 -92.69,150.581 -30.702,154.193 12.387,79.94 0,0"
             style="fill:#996633;fill-opacity:1;fill-rule:evenodd;stroke:none"
             id="path42490" />
        </g>
        <g
           id="g42492"
           transform="translate(477.9199,687.6445)">
          <path
             d="M 0,0 C -24.929,-39.352 -76.289,-51.932 -118.439,-24.045 -76.14,-25.826 -24.713,-15.36 0,0"
             style="fill:#ffffff;fill-opacity:1;fill-rule:evenodd;stroke:none"
             id="path42494" />
        </g>
        <g
           id="g42496"
           transform="translate(364.8252,733.2842)">
          <path
             d="M 0,0 C 10.79,0 19.591,10.502 19.591,23.376 19.591,36.252 10.79,46.755 0,46.755 -10.792,46.755 -19.591,36.252 -19.591,23.376 -19.591,10.502 -10.792,0 0,0"
             style="fill:#333333;fill-opacity:1;fill-rule:evenodd;stroke:none"
             id="path42498" />
        </g>
        <g
           id="g42500"
           transform="translate(478.8164,765.5654)">
          <path
             d="M 0,0 C 7.479,0 13.582,10.502 13.582,23.378 13.582,36.252 7.479,46.754 0,46.754 -7.482,46.754 -13.581,36.252 -13.581,23.378 -13.581,10.502 -7.482,0 0,0"
             style="fill:#333333;fill-opacity:1;fill-rule:evenodd;stroke:none"
             id="path42502" />
        </g>
        <g
           id="g42504"
           transform="translate(264.2637,602.083)">
          <path
             d="M 0,0 C 30.092,15.14 60.184,30.279 90.277,45.421 177.462,28.271 272.603,-8.126 335.96,-42.421 391.605,-18.352 462.752,5.226 563.402,22.583 593.289,8.144 600.252,4.779 630.139,-9.659 521.252,-43.241 412.366,-76.825 303.479,-110.404 202.318,-73.602 101.161,-36.802 0,0"
             style="fill:#f2dfcb;fill-opacity:1;fill-rule:evenodd;stroke:none"
             id="path42506" />
        </g>
        <g
           id="g42508"
           transform="translate(577.2754,511.3828)">
          <path
             d="M 0,0 C 38.492,0 69.889,9.998 69.889,22.259 69.889,34.519 38.492,44.521 0,44.521 -38.497,44.521 -69.894,34.519 -69.894,22.259 -69.894,9.998 -38.497,0 0,0"
             style="fill:#b3977c;fill-opacity:1;fill-rule:evenodd;stroke:none"
             id="path42510" />
        </g>
        <g
           id="g42512"
           transform="translate(507.3818,552.293)">
          <path
             d="m 0,0 v 0 c 0,-12.295 31.29,-22.26 69.892,-22.26 38.6,0 69.89,9.965 69.89,22.26 v -367.003 c 0,-12.297 -31.29,-22.261 -69.89,-22.261 C 31.29,-389.264 0,-379.3 0,-367.003 Z"
             style="fill:#bad526;fill-opacity:1;fill-rule:evenodd;stroke:none"
             id="path42514" />
        </g>
        <g
           id="g42516"
           transform="translate(507.3818,552.293)">
          <path
             d="M 0,0 -261.914,53.642 V -313.363 L 0,-367.005 Z"
             style="fill:#94ab13;fill-opacity:1;fill-rule:evenodd;stroke:none"
             id="path42518" />
        </g>
        <g
           id="g42520"
           transform="translate(647.1641,552.293)">
          <path
             d="M 0,0 261.914,53.642 V -313.363 L 0,-367.005 Z"
             style="fill:#82970a;fill-opacity:1;fill-rule:evenodd;stroke:none"
             id="path42522" />
        </g>
        <g
           id="g42524"
           transform="translate(264.0156,351.832)">
          <path
             d="M 0,0 C 25.081,0 45.534,20.453 45.534,45.534 45.534,70.615 25.081,91.067 0,91.067 -25.081,91.067 -45.534,70.615 -45.534,45.534 -45.534,20.453 -25.081,0 0,0"
             style="fill:#ffcc99;fill-opacity:1;fill-rule:evenodd;stroke:none"
             id="path42526" />
        </g>
        <g
           id="g42528"
           transform="translate(880.6807,335.9473)">
          <path
             d="M 0,0 C 25.079,0 45.534,20.453 45.534,45.534 45.534,70.615 25.079,91.068 0,91.068 -25.081,91.068 -45.534,70.615 -45.534,45.534 -45.534,20.453 -25.081,0 0,0"
             style="fill:#ffcc99;fill-opacity:1;fill-rule:evenodd;stroke:none"
             id="path42530" />
        </g>
      </g>
    </g>
  </g>
</svg>
