<?xml version="1.0" encoding="UTF-8" standalone="no"?>
<!-- Created with Inkscape (http://www.inkscape.org/) -->

<svg
   xmlns:dc="http://purl.org/dc/elements/1.1/"
   xmlns:cc="http://creativecommons.org/ns#"
   xmlns:rdf="http://www.w3.org/1999/02/22-rdf-syntax-ns#"
   xmlns:svg="http://www.w3.org/2000/svg"
   xmlns="http://www.w3.org/2000/svg"
   xmlns:sodipodi="http://sodipodi.sourceforge.net/DTD/sodipodi-0.dtd"
   xmlns:inkscape="http://www.inkscape.org/namespaces/inkscape"
   version="1.1"
   id="svg44328"
   width="4078"
   height="5957"
   viewBox="0 0 4078 5957"
   sodipodi:docname="fruit-3215520.svg"
   inkscape:version="0.92.2 5c3e80d, 2017-08-06">
  <metadata
     id="metadata44334">
    <rdf:RDF>
      <cc:Work
         rdf:about="">
        <dc:format>image/svg+xml</dc:format>
        <dc:type
           rdf:resource="http://purl.org/dc/dcmitype/StillImage" />
        <dc:title></dc:title>
      </cc:Work>
    </rdf:RDF>
  </metadata>
  <defs
     id="defs44332" />
  <sodipodi:namedview
     pagecolor="#ffffff"
     bordercolor="#666666"
     borderopacity="1"
     objecttolerance="10"
     gridtolerance="10"
     guidetolerance="10"
     inkscape:pageopacity="0"
     inkscape:pageshadow="2"
     inkscape:window-width="1807"
     inkscape:window-height="1030"
     id="namedview44330"
     showgrid="false"
     inkscape:zoom="0.10710089"
     inkscape:cx="3949.333"
     inkscape:cy="2247.9006"
     inkscape:window-x="0"
     inkscape:window-y="23"
     inkscape:window-maximized="0"
     inkscape:current-layer="svg44328" />
  <path
     style="fill:#b88154;fill-opacity:1"
     d="m 2858.5,5956.3362 c -119.9396,-4.6618 -221.5065,-27.411 -305,-68.3147 -91.4538,-44.8036 -160.6168,-112.8185 -200.1613,-196.8388 -6.2119,-13.1985 -16.7228,-39.1319 -16.109,-39.7457 0.2321,-0.2321 4.484,4.2036 9.4487,9.8572 50.2741,57.2506 112.0917,104.5441 178.8216,136.8074 75.5906,36.5474 159.4628,57.1455 256,62.8708 21.6809,1.2859 76.9279,1.2938 98.9665,0.014 34.5692,-2.007 98.3838,-13.171 152.0335,-26.5974 38.283,-9.5807 90.7172,-26.1279 126.5,-39.9209 176.1207,-67.8885 327.1726,-178.9106 447.58,-328.9684 59.1703,-73.741 112.9542,-160.3472 154.9437,-249.5 84.4032,-179.2066 134.7344,-379.3055 154.0629,-612.5 3.2451,-39.1507 0.1077,-126.1977 -7.1545,-198.5 -37.7878,-376.2198 -198.5994,-758.2761 -488.2564,-1160 -58.4349,-81.0431 -131.1121,-173.9117 -201.5147,-257.5 -13.8699,-16.4676 -18.6889,-22.8802 -19.1632,-25.5 -1.3841,-7.6461 -14.8956,-61.7394 -21.5092,-86.112 -83.9253,-309.2843 -218.3349,-532.924 -402.4886,-669.6876 -102.2462,-75.9342 -221.2639,-125.6155 -355,-148.1869 -61.3494,-10.3542 -115.5379,-14.3905 -185.7505,-13.8356 -22.4128,0.1772 -40.6378,0.022 -40.5,-0.3442 0.7547,-2.0075 26.5241,-20.7516 29.1728,-21.2197 1.6927,-0.2991 18.8277,-1.0629 38.0777,-1.6973 103.6646,-3.4164 206.4505,6.531 295.4988,28.5979 183.3407,45.4333 329.4763,141.2703 439.8923,288.4854 112.1829,149.5708 184.3689,352.973 212.5809,599 2.4059,20.9808 2.5337,21.5604 5.293,24 80.5823,71.2481 112.206,100.842 176.7846,165.4377 72.1542,72.1733 120.2893,124.5499 177.8874,193.5623 148.2293,177.604 260.8703,357.8673 344.3031,551 93.7739,217.0707 147.1456,448.0382 160.7153,695.5 2.041,37.2212 3.8922,108.1695 3.2484,124.5 -0.7666,19.4444 -12.2168,90.3013 -24.8051,153.5 -44.5744,223.783 -115.3258,417.3099 -210.2885,575.2035 -191.5489,318.4867 -480.3196,497.6602 -858.6102,532.7417 -43.6301,4.0461 -86.9522,5.3893 -125.5,3.891 z m -1138,-48.02 c -1.65,-0.2112 -13.9803,-1.7429 -27.4007,-3.4036 C 1489.0747,5879.665 1303.4131,5801.389 1156,5678.4684 c -27.6699,-23.0725 -41.3169,-35.6289 -70.5279,-64.8912 -54.995,-55.0919 -93.79329,-102.6691 -138.61295,-169.9771 C 793.57567,5213.4061 704.25554,4908.0661 681.36178,4536 c -1.85206,-30.0995 -1.449,-44.9152 2.69329,-99 40.16595,-524.4366 258.60451,-1017.1659 655.79243,-1479.2634 16.6361,-19.3548 42.4231,-48.8006 56.3785,-64.3779 1.4499,-1.6184 3.2327,-9.3095 7.3014,-31.5 71.8073,-391.6253 221.4616,-664.1329 448.9082,-817.4232 120.3487,-81.1105 260.2074,-128.5017 423.0644,-143.3558 35.354,-3.2246 53.5719,-4.1386 95.25,-4.7789 l 39.25,-0.603 v 8.1511 8.1511 h -6.25 c -7.6836,0 -41.9936,2.5068 -62.25,4.5444 -260.3603,26.1898 -469.9081,130.4154 -626.1847,311.4539 -124.2911,143.985 -216.1249,336.588 -275.7443,578.3186 -5.6287,22.8217 -15.0859,64.5634 -18.5505,81.8771 -1.2594,6.2939 -7.2345,15.7053 -37.9676,59.8043 -116.5363,167.2176 -222.6087,343.8184 -306.0228,509.5 -149.13223,296.2146 -235.36237,572.8288 -259.98632,834 -5.55546,58.9234 -7.47881,107.8562 -6.72131,171 0.66326,55.2879 2.58584,86.4098 9.23549,149.5 35.95201,341.1039 151.55056,641.0088 329.33714,854.4208 38.9563,46.7625 86.9357,94.9819 131.6216,132.2798 138.9469,115.9744 301.5225,183.3729 474.4833,196.705 42.2398,3.256 56.7322,3.1192 102,-0.9622 165.0645,-14.8826 287.3106,-61.957 360.8116,-138.9411 45.1863,-47.3275 74.2549,-107.037 85.3932,-175.4055 l 2.2952,-14.0883 h 14.3022 14.3021 l -0.534,8.25 c -0.2937,4.5375 -0.7944,13.2 -1.1126,19.25 -1.227,23.3268 -5.7341,51.8963 -12.1476,77 -39.3305,153.9486 -167.9729,256.8808 -384.282,307.4801 -55.1048,12.8901 -117.7027,22.6211 -186.4761,28.988 -21.7934,2.0176 -23.2833,2.0867 -29.052,1.3481 z m 1324.6797,-374.3556 c -4.0261,-0.4223 -7.5577,-1.0053 -7.848,-1.2955 -0.2902,-0.2903 3.2891,-7.6461 7.9539,-16.3464 99.9086,-186.3357 167.9313,-396.9613 196.1369,-607.3187 12.5077,-93.2821 17.2742,-172.0835 16.2711,-269 -0.5516,-53.2923 -1.0928,-67.6909 -4.2288,-112.5 -22.3107,-318.7913 -127.9463,-632.4625 -301.9156,-896.5 -8.8784,-13.475 -19.4086,-29.163 -23.4003,-34.8623 -3.9917,-5.6992 -7.0467,-10.5732 -6.7889,-10.831 0.2578,-0.2579 5.5698,3.2373 11.8044,7.7671 68.7788,49.9715 134.1584,123.0284 190.5505,212.9262 114.5055,182.5397 189.7229,426.7159 212.2432,689 10.0151,116.6406 8.8852,222.3634 -3.5428,331.5 -25.7827,226.4111 -98.1068,434.0446 -218.7487,628 -13.1238,21.099 -41.5343,64.0248 -49.4734,74.75 -4.7652,6.4375 -4.1064,6.2742 -19.0135,4.7106 z M 2465,1805.9084 v -10.0915 l 7.8388,-12.6585 C 2559.4367,1643.316 2635.5561,1447.553 2703.868,1189 c 44.0262,-166.6341 84.8824,-362.6966 121.592,-583.5 12.9115,-77.66126 19.0924,-117.2809 18.404,-117.96936 -0.2936,-0.29361 -9.2706,-1.66386 -19.9489,-3.04501 -82.9191,-10.72491 -154.127,-28.10946 -210.7928,-51.46253 -6.8077,-2.80559 -12.5864,-4.89236 -12.8415,-4.63727 -0.2551,0.25509 1.1492,14.11013 3.1207,30.78898 16.2598,137.56092 23.5905,261.2047 23.5864,397.82519 0,78.61675 -1.4576,125.40959 -6.049,194.5 -17.16,258.2207 -70.5494,477.2878 -148.6193,609.8141 -7.7529,13.1608 -24.4484,38.8905 -24.9256,38.4132 -0.1823,-0.1823 3.8832,-17.183 9.0344,-37.7794 67.2874,-269.0368 106.1875,-592.6577 116.5303,-969.4479 1.9254,-70.14457 2.3341,-96.76789 2.9321,-191 l 0.6092,-96 4.7247,4.35405 4.7247,4.35406 3.7753,-2.97038 c 10.3941,-8.17798 27.5841,-14.65583 48.7753,-18.38038 11.3421,-1.99348 16.4433,-2.28948 40,-2.32111 29.1906,-0.0392 38.1676,0.75455 63.2312,5.59085 25.0019,4.82438 44.7757,11.20402 64.7688,20.89641 17.107,8.29327 26.5517,14.84611 38.1852,26.49348 9.9656,9.9775 10.3213,10.22275 16.5,11.37793 3.4731,0.64934 7.5523,1.42438 9.0648,1.72231 l 2.75,0.54169 -0.01,9.67055 c -0.012,18.3065 -3.8433,93.58255 -7.0317,138.17054 -25.7226,359.71726 -102.3483,685.7165 -220.4757,938 -42.1464,90.0117 -93.0056,173.0489 -141.7907,231.5 -12.3046,14.7426 -36.7553,41.5 -37.9224,41.5 -0.4251,0 -0.7729,-4.5412 -0.7729,-10.0916 z M 2448.9941,1587.25 c -0.01,-16.2391 -1.8253,-56.3774 -3.5183,-77.75 -7.6541,-96.6229 -27.2985,-185.0304 -60.217,-271 -22.0261,-57.5231 -55.8848,-123.2671 -88.5953,-172.0271 l -4.566,-6.8061 -5.2254,11.4166 c -8.4164,18.3881 -26.8206,54.0986 -37.0639,71.9166 -87.1276,151.5574 -198.1013,234.682 -335.8082,251.5362 -17.9858,2.2013 -64.8995,3.0989 -80.6191,1.5426 C 1496.8566,1362.7599 1127.2307,1172.8084 724,825.96565 583.527,705.13646 431.99847,558.13058 287.01251,402.02085 l -10.48749,-11.29213 10.98749,0.69391 c 17.23663,1.08856 15.7229,0.3796 31.61132,14.80512 73.9912,67.17859 137.20272,123.12245 200.37617,177.3382 412.8979,354.35091 761.7571,583.11145 1048,687.21425 86.1363,31.3267 165.9257,51.1126 243.5,60.3824 31.9225,3.8146 74.2605,3.1385 109.5,-1.7485 54.6451,-7.5783 107.3659,-25.6568 153.114,-52.5045 77.4667,-45.4621 144.4025,-119.6313 198.516,-219.9684 l 8.0534,-14.9327 -10.8417,-14.7507 C 2216.2041,954.96121 2146.5761,883.92504 2070.1221,824.00925 1829.5236,635.45587 1481.9171,506.44153 1028.9043,437.56068 958.28585,426.82311 866.56059,415.41281 799.5,409.02359 c -12.1,-1.15283 -23.48867,-2.33005 -25.30816,-2.61605 l -3.30815,-0.51999 9.30815,-10.03781 C 785.31133,390.32894 791.075,384.06217 793,381.92359 l 3.5,-3.88834 27.5,1.96071 c 391.1553,27.88875 695.7191,88.07722 940,185.76458 153.3386,61.31974 278.4996,135.84191 383.9908,228.63212 16.6191,14.6182 56.9799,54.58472 73.3237,72.60734 102.8391,113.4033 172.931,245.6914 212.202,400.5 23.4933,92.6118 34.4831,181.8173 37.0516,300.75 l 0.6425,29.75 H 2460.1053 2449 l -0.01,-10.75 z m -77.4684,-680 C 2360.1118,738.87482 2319.4739,598.04751 2247.2998,476.75519 2115.5937,255.41651 1879.7327,119.50597 1558,79.558875 1485.8569,70.601422 1431.1051,67.531509 1343.5,67.531951 1280.318,67.53227 1258.6723,68.160764 1205,71.55337 882.66129,91.928285 500.51531,183.32349 75.866555,341.60038 54.61816,349.52017 35.94316,356.00291 34.366555,356.00646 27.568093,356.02179 1,353.62037 1,352.99055 1,351.70782 87.550916,311.73057 139.92458,288.82229 511.29508,126.38451 870.05002,29.686754 1191,5.5185047 c 47.7583,-3.5963042 75.7864,-4.69274155 133.5,-5.22241368 73.3006,-0.67272275 118.7271,0.93294998 177,6.25633818 C 1824.9068,36.096546 2071.4844,157.07144 2223.9543,361 c 90.9253,121.61278 147.2953,272.70412 166.9558,447.5 3.8066,33.84412 7.0899,79.74114 7.0899,99.11093 V 917 h -12.9067 -12.9067 z"
     id="path44338"
     inkscape:connector-curvature="0" />
</svg>
